<?xml version="1.0" standalone="no"?>
<!DOCTYPE svg PUBLIC "-//W3C//DTD SVG 20010904//EN"
 "http://www.w3.org/TR/2001/REC-SVG-20010904/DTD/svg10.dtd">
<svg version="1.0" xmlns="http://www.w3.org/2000/svg"
 width="751.000000pt" height="314.000000pt" viewBox="0 0 751.000000 314.000000"
 preserveAspectRatio="xMidYMid meet">

<g transform="translate(0.000000,314.000000) scale(0.100000,-0.100000)"
fill="#000000" stroke="none">
<path d="M6177 2881 c-19 -17 -46 -57 -61 -90 -67 -151 -61 -342 19 -535 7
-17 2 -16 -36 8 -24 14 -108 60 -186 102 -130 68 -148 82 -227 164 -95 100
-116 107 -116 36 0 -64 37 -203 76 -283 19 -40 57 -102 85 -138 28 -37 49 -68
47 -69 -1 -2 -34 -17 -73 -34 l-70 -30 -900 -12 c-495 -6 -1127 -15 -1405 -20
-278 -5 -910 -14 -1405 -20 -495 -7 -920 -15 -943 -18 l-44 -7 -115 -275
c-119 -285 -390 -939 -424 -1022 l-19 -48 53 0 c28 0 178 7 332 14 154 8 359
17 455 21 96 3 258 10 360 16 102 5 347 16 545 24 198 8 565 24 815 35 250 11
660 29 910 40 804 35 1141 50 1340 60 178 9 197 8 217 -8 12 -9 59 -48 105
-86 95 -79 221 -144 343 -176 85 -22 215 -28 377 -16 l83 6 52 -69 c86 -114
242 -203 328 -187 93 18 119 88 120 321 0 89 -6 190 -13 227 l-12 68 33 67
c60 120 87 200 103 305 38 255 -40 465 -261 697 -40 42 -76 87 -80 101 -17 59
-82 192 -135 275 -140 221 -185 330 -197 485 -9 110 -20 120 -76 71z m12 -240
c13 -44 90 -190 140 -266 143 -214 201 -396 171 -539 -12 -61 -12 -61 -41 -46
-26 14 -24 9 12 -31 36 -40 58 -80 100 -186 17 -43 35 -84 41 -91 15 -17 12
-18 -63 -25 l-66 -6 -6 57 c-9 86 -25 129 -64 173 -36 40 -62 53 -45 22 7 -11
5 -30 -5 -57 -20 -57 -27 -154 -15 -198 10 -35 9 -37 -20 -47 -17 -6 -48 -8
-69 -5 l-38 6 6 63 c9 95 -4 188 -33 230 -45 67 -21 105 26 40 31 -43 38 -44
36 -3 -1 26 6 36 39 59 23 16 48 26 58 23 26 -8 20 4 -10 20 l-28 15 25 1 25
1 -24 19 c-24 20 -15 25 25 14 13 -3 26 -19 32 -37 10 -31 10 -31 11 16 1 57
-39 166 -104 282 -120 213 -155 310 -155 426 0 76 9 134 20 122 4 -4 12 -28
19 -52z m-364 -347 c33 -22 98 -60 145 -85 59 -30 107 -66 156 -114 64 -63
134 -155 134 -177 0 -22 -29 -2 -60 42 -19 27 -75 81 -125 120 -138 107 -315
230 -315 218 0 -22 92 -139 157 -198 61 -56 63 -59 20 -29 -110 76 -195 179
-237 288 l-21 55 43 -40 c24 -22 70 -58 103 -80z m203 -213 c105 -79 137 -111
167 -161 5 -8 -11 2 -35 23 -25 21 -77 63 -116 92 -84 63 -189 161 -156 145
13 -6 76 -51 140 -99z m49 -175 l93 -88 -20 -25 c-22 -28 -25 -61 -11 -108 4
-17 5 -69 1 -117 -7 -94 -24 -128 -63 -128 -55 0 -148 -71 -117 -90 7 -4 9
-17 4 -35 -7 -28 -7 -28 -15 -6 -13 34 -28 211 -22 263 3 29 -1 64 -12 97 -14
42 -27 59 -75 96 -32 25 -60 49 -62 53 -7 19 -90 62 -119 62 -20 0 -29 4 -27
12 7 19 136 86 218 112 92 30 93 29 227 -98z m224 104 c23 -6 40 -19 47 -35
11 -24 10 -25 -27 -25 -38 0 -39 1 -69 63 -5 9 6 9 49 -3z m-100 -149 c27 -30
49 -60 49 -65 0 -6 -18 10 -40 36 -23 26 -73 77 -113 114 l-72 66 64 -48 c35
-27 86 -74 112 -103z m174 48 c11 -17 -1 -21 -15 -4 -8 9 -8 15 -2 15 6 0 14
-5 17 -11z m-2492 -42 c22 -6 53 -24 69 -39 30 -27 30 -31 26 -96 -6 -77 -49
-176 -104 -241 -77 -89 -250 -141 -404 -121 -107 14 -153 40 -171 99 -24 80
60 262 152 329 108 80 293 109 432 69z m1544 5 c-10 -10 -17 -29 -17 -41 0
-13 -14 -36 -31 -52 l-31 -29 -142 0 -143 0 -11 -25 c-7 -14 -12 -30 -12 -35
0 -6 69 -10 170 -10 94 0 170 -3 170 -7 0 -5 -10 -32 -22 -60 l-23 -53 -176 0
-177 0 -12 -29 c-6 -17 -9 -35 -5 -40 4 -7 62 -11 159 -11 179 0 186 -3 178
-82 l-4 -48 -293 0 c-162 0 -296 4 -299 8 -3 5 4 33 15 62 29 76 169 409 186
443 l14 27 261 0 c252 0 261 -1 245 -18z m-1002 -122 c26 -71 51 -130 55 -130
3 0 31 59 60 130 l54 130 98 0 c54 0 98 -2 98 -4 0 -4 -161 -384 -194 -458
l-26 -58 -104 0 c-71 0 -107 4 -113 13 -13 16 -123 274 -123 287 0 28 -19 3
-44 -57 -15 -38 -44 -105 -64 -150 l-37 -83 -87 0 c-49 0 -88 4 -88 9 0 16
188 469 203 489 7 8 47 12 137 12 l127 0 48 -130z m1095 65 c24 -31 40 -58 36
-62 -3 -4 -13 2 -20 13 -8 10 -28 36 -45 58 -29 37 -41 63 -22 52 4 -3 27 -30
51 -61z m29 9 c24 -30 41 -58 37 -61 -6 -7 -11 -1 -66 75 -45 61 -23 51 29
-14z m63 44 c3 -7 -6 -21 -20 -32 -20 -16 -25 -17 -32 -5 -6 8 -3 20 7 31 19
21 40 23 45 6z m658 2 c0 -5 -2 -10 -4 -10 -3 0 -8 5 -11 10 -3 6 -1 10 4 10
6 0 11 -4 11 -10z m-2887 -7 c3 -5 -11 -42 -31 -83 l-37 -75 -170 -78 c-93
-43 -174 -82 -179 -88 -6 -5 42 -9 132 -9 78 0 142 -2 142 -4 0 -2 -13 -35
-29 -73 l-30 -68 -268 3 c-147 2 -269 5 -271 6 -1 2 12 34 28 72 l31 70 172
87 172 86 -132 1 c-73 0 -133 3 -133 8 0 4 12 37 27 74 l28 68 210 3 c116 1
238 3 272 5 34 1 64 -1 66 -5z m-627 -35 c-47 -110 -86 -199 -104 -238 -11
-25 -36 -80 -56 -122 l-35 -78 -58 0 c-32 0 -64 4 -70 8 -13 8 4 55 107 297
24 55 49 115 57 133 l13 32 80 0 80 0 -14 -32z m2733 -23 c24 -31 41 -61 39
-67 -4 -12 -98 97 -98 113 0 21 20 5 59 -46z m-3869 31 c0 -7 -11 -39 -25 -70
-14 -31 -25 -59 -25 -62 0 -2 48 -3 106 -2 l106 3 30 73 31 72 68 0 c38 0 69
-4 69 -8 0 -8 -109 -261 -168 -391 l-20 -45 -64 3 c-34 1 -64 4 -66 6 -2 1 9
28 23 60 39 88 40 86 -77 83 l-103 -3 -34 -72 -35 -73 -64 0 c-47 0 -63 3 -59
13 3 6 19 46 35 87 17 41 56 131 86 200 59 136 59 136 149 139 25 1 37 -3 37
-13z m768 -213 l2 -223 -79 0 -80 0 -3 38 -3 37 -96 3 -97 3 -32 -41 -32 -40
-74 0 c-41 0 -74 2 -74 5 0 8 138 171 274 323 l109 123 91 -3 91 -3 3 -222z
m4261 167 c110 -132 161 -263 161 -410 l-1 -85 -15 40 c-8 22 -18 49 -21 60
-3 11 -32 56 -63 100 -61 87 -70 105 -106 209 -24 71 -32 146 -14 146 5 0 32
-27 59 -60z m-5215 28 c-3 -13 -17 -44 -31 -71 l-24 -48 -69 4 c-39 2 -74 1
-79 -2 -5 -4 -34 -63 -66 -133 -76 -170 -70 -163 -137 -152 l-56 9 59 134 c32
73 56 137 53 142 -3 5 -34 9 -70 9 -35 0 -64 4 -64 9 0 5 12 34 26 65 l25 56
220 0 220 0 -7 -22z m4314 -50 c63 -73 65 -87 17 -88 -11 0 -30 -7 -42 -15
-20 -14 -23 -12 -55 28 -19 23 -42 57 -50 74 -16 32 -16 33 9 53 14 11 33 20
43 20 9 0 44 -32 78 -72z m-274 -1 c21 -26 36 -50 33 -53 -7 -7 -87 94 -87
109 0 12 -1 13 54 -56z m-54 9 c0 -2 -7 -6 -15 -10 -8 -3 -15 -1 -15 4 0 6 7
10 15 10 8 0 15 -2 15 -4z m170 -57 c0 -12 8 -23 20 -26 10 -3 25 -15 32 -27
12 -19 11 -24 -12 -48 l-26 -28 -37 50 c-39 53 -44 69 -25 88 20 20 48 15 48
-9z m240 11 c8 -5 11 -10 5 -10 -5 0 -17 5 -25 10 -8 5 -10 10 -5 10 6 0 17
-5 25 -10z m-337 -42 l18 -32 -30 -28 c-17 -16 -31 -37 -31 -46 -1 -12 -9 -7
-30 18 -17 19 -30 39 -30 44 0 14 61 76 74 76 6 0 19 -14 29 -32z m337 -17 c0
-9 -24 -21 -41 -21 -16 0 -10 18 9 23 28 8 32 7 32 -2z m42 -23 c-8 -8 -9 -4
-5 13 4 13 8 18 11 10 2 -7 -1 -18 -6 -23z m-117 -28 c-20 -22 -35 -26 -35 -8
0 20 33 49 44 38 6 -6 3 -16 -9 -30z m674 -9 c22 -51 28 -107 12 -96 -14 8
-32 -31 -29 -62 2 -19 -2 -28 -14 -31 -22 -4 -42 67 -34 123 10 63 26 115 35
115 5 0 18 -22 30 -49z m-889 25 c0 -2 -12 -12 -27 -21 l-28 -18 19 21 c17 20
36 29 36 18z m660 -51 c0 -35 -6 -65 -17 -81 -14 -22 -15 -31 -5 -57 12 -31 9
-47 -5 -33 -10 10 -10 141 0 189 12 55 27 45 27 -18z m-538 10 c-2 -14 0 -25
7 -25 5 0 8 -7 4 -16 -5 -15 -7 -15 -15 0 -5 9 -16 16 -23 16 -19 0 -19 9 2
32 22 25 31 23 25 -7z m-153 -25 c-27 -26 -39 -45 -35 -55 19 -46 19 -50 3
-30 -9 11 -17 28 -17 37 0 18 64 88 81 88 5 0 -9 -18 -32 -40z m181 20 c0 -5
-4 -10 -10 -10 -5 0 -10 5 -10 10 0 6 5 10 10 10 6 0 10 -4 10 -10z m25 0 c3
-5 1 -10 -4 -10 -6 0 -11 5 -11 10 0 6 2 10 4 10 3 0 8 -4 11 -10z m-285 -57
c0 -26 -3 -27 -31 -13 -18 10 -26 50 -12 63 11 12 43 -25 43 -50z m351 34
c-13 -13 -26 -3 -16 12 3 6 11 8 17 5 6 -4 6 -10 -1 -17z m-51 -26 c0 -13 -29
-35 -37 -28 -7 8 15 37 28 37 5 0 9 -4 9 -9z m90 -56 c0 -55 -3 -66 -21 -75
-17 -9 -23 -8 -34 7 -9 11 -10 22 -4 28 12 12 12 45 -1 45 -32 0 15 49 58 59
1 1 2 -28 2 -64z m-423 5 c28 -16 58 -39 67 -51 14 -20 13 -25 -7 -60 -12 -22
-25 -39 -28 -39 -3 0 -22 24 -42 53 -20 29 -50 66 -67 82 -16 16 -30 32 -30
37 0 18 58 6 107 -22z m183 4 c14 -35 12 -115 -3 -140 -28 -49 -95 -114 -111
-108 -32 12 -31 54 2 118 17 34 40 82 51 109 23 53 46 61 61 21z m155 -44
c-16 -10 -31 -17 -34 -14 -7 6 32 33 49 34 8 0 2 -9 -15 -20z m937 -39 c24
-10 50 -26 58 -36 14 -17 13 -18 -7 -13 -26 7 -30 -4 -8 -22 8 -7 15 -22 15
-33 0 -19 -1 -20 -20 -2 -20 18 -20 18 -14 -13 6 -31 -7 -45 -21 -22 -3 6 -11
10 -17 10 -6 0 -3 -9 7 -20 26 -28 10 -58 -58 -109 -55 -42 -74 -51 -61 -29 8
13 -11 -1 -95 -69 -79 -65 -111 -57 -171 37 -16 25 -21 29 -17 13 3 -13 3 -23
1 -23 -2 0 -30 20 -62 44 -70 54 -142 130 -142 151 0 13 -4 14 -21 4 -21 -11
-22 -10 -16 19 5 25 3 30 -8 25 -24 -9 -17 7 17 39 l31 29 -29 -5 -29 -6 30
14 c57 28 135 15 135 -23 0 -9 11 -28 24 -40 l25 -23 33 23 c18 13 35 26 38
29 5 6 106 39 180 59 61 16 155 13 202 -8z m-986 -26 c10 -40 -4 -76 -46 -117
-25 -25 -32 -37 -19 -33 15 5 19 2 19 -16 0 -20 4 -21 45 -16 25 2 44 2 43 -2
-30 -57 -31 -61 -18 -76 7 -9 29 -15 52 -15 39 0 40 -1 26 -22 -21 -31 -73
-43 -123 -28 -56 17 -130 74 -150 116 -22 47 -9 80 55 137 26 23 55 54 65 70
22 34 43 35 51 2z m59 -57 c-60 -60 -73 -95 -30 -84 14 4 25 3 25 -2 0 -12
-78 -37 -87 -28 -13 13 31 78 86 127 30 27 56 47 58 45 2 -1 -22 -28 -52 -58z
m-361 12 c14 -22 26 -49 26 -61 0 -11 14 -34 30 -51 17 -16 33 -41 37 -56 7
-31 81 -104 121 -121 23 -10 31 -21 38 -54 8 -35 15 -45 47 -60 20 -9 37 -24
37 -31 0 -15 53 -121 84 -169 l19 -28 -26 10 c-253 97 -427 321 -444 574 -3
48 -4 87 -1 87 3 0 17 -18 32 -40z m456 10 c0 -21 -36 -50 -62 -50 -21 0 -23
-11 -6 -28 9 -9 8 -12 -4 -12 -18 0 -34 33 -19 38 6 2 11 10 11 17 0 16 61 66
72 59 4 -3 8 -14 8 -24z m402 4 c-22 -15 -42 -12 -42 7 0 5 15 9 32 9 32 0 32
0 10 -16z m-4491 -25 c111 -28 111 -166 0 -241 -25 -17 -48 -33 -50 -35 -3 -2
10 -16 29 -32 28 -23 34 -35 35 -72 1 -45 -13 -86 -39 -112 -12 -11 -34 -14
-98 -11 -290 15 -702 34 -729 34 -29 0 -31 2 -24 28 3 15 17 50 30 77 31 66
75 184 72 193 -1 4 13 48 31 98 l32 90 338 -4 c185 -2 353 -8 373 -13z m477
-4 c5 -5 -79 -216 -103 -260 -13 -22 -33 -71 -45 -110 -13 -38 -28 -86 -34
-105 -9 -26 -17 -35 -34 -34 -12 0 -65 1 -117 2 l-95 2 10 24 c5 14 22 53 38
88 16 35 43 104 60 153 40 120 80 226 91 239 8 10 219 10 229 1z m489 -130
c29 -71 54 -138 55 -147 4 -30 14 -20 33 30 10 26 36 91 58 145 l40 97 103 0
103 0 -56 -137 c-31 -76 -61 -145 -68 -153 -13 -14 -64 -134 -69 -162 -9 -42
-19 -67 -29 -70 -7 -2 -65 -2 -130 0 l-118 3 -13 32 c-45 106 -93 206 -113
235 l-22 33 -18 -33 c-31 -58 -73 -162 -73 -180 0 -9 -8 -34 -17 -53 l-17 -37
-106 7 c-58 4 -106 8 -107 9 -1 0 9 24 22 51 35 74 85 196 85 209 0 12 75 208
91 238 9 17 22 18 161 16 l151 -3 54 -130z m3139 77 c-14 -20 -50 -62 -81 -92
-45 -45 -55 -51 -55 -33 0 13 25 44 66 82 64 60 78 84 35 61 -12 -6 -21 -8
-21 -6 0 11 75 44 79 35 1 -6 -9 -27 -23 -47z m-2224 39 l187 -6 -33 -75 -32
-75 -110 -3 -111 -3 -23 -57 c-12 -31 -33 -73 -45 -92 -21 -33 -53 -110 -72
-175 l-8 -30 -93 -3 c-50 -1 -92 1 -92 6 0 4 15 39 34 78 19 38 43 96 54 129
11 33 27 77 36 98 20 46 21 46 -110 49 l-101 3 34 83 35 82 131 -1 c73 -1 216
-4 319 -8z m515 -13 c4 -7 8 -115 9 -239 l1 -227 -51 -6 c-28 -3 -67 -6 -86
-6 -35 0 -36 0 -32 40 l4 40 -95 0 c-126 0 -147 -5 -177 -45 -21 -28 -35 -35
-86 -44 -33 -6 -80 -11 -105 -11 l-43 0 70 73 c39 39 81 86 93 102 13 17 85
99 162 183 l140 152 94 0 c64 0 96 -4 102 -12z m694 -27 c25 -30 25 -102 0
-157 -18 -39 -74 -103 -133 -150 -24 -19 -26 -25 -18 -60 16 -66 17 -65 -62
-62 l-72 3 -11 50 -10 50 -68 3 c-38 2 -74 -1 -80 -7 -7 -5 -21 -32 -32 -60
l-19 -51 -73 0 -72 0 29 66 c17 36 30 70 30 75 0 5 32 81 71 170 l72 160 214
-3 c212 -3 215 -3 234 -27z m456 17 c6 -7 13 -33 17 -58 4 -25 14 -68 23 -96
16 -51 16 -52 -11 -101 -37 -68 -83 -113 -148 -146 -135 -68 -319 -57 -349 21
-15 39 -6 87 31 167 52 109 128 181 223 211 56 17 201 18 214 2z m1513 -16 c0
-61 -115 -312 -142 -312 -14 0 -9 88 5 102 25 25 95 143 107 181 10 32 30 52
30 29z m-895 -10 c-34 -29 -87 -63 -91 -59 -8 8 66 67 83 67 10 0 13 -3 8 -8z
m97 -54 c12 -31 26 -36 34 -13 5 12 17 6 53 -28 25 -24 80 -68 121 -99 106
-78 111 -85 63 -94 -21 -3 -48 -13 -60 -20 -28 -17 -63 -84 -63 -118 0 -15 -8
-30 -19 -36 -17 -9 -27 -2 -66 44 -45 52 -94 123 -95 138 0 4 16 23 36 42 35
34 36 36 24 73 -7 21 -25 64 -40 95 -19 41 -24 60 -16 68 8 8 12 6 14 -7 2
-10 8 -30 14 -45z m-112 5 c-1 -10 -84 -72 -107 -80 -23 -8 -11 5 47 51 45 35
60 42 60 29z m-30 -68 c-7 -8 -17 -15 -22 -15 -6 0 -5 7 2 15 7 8 17 15 22 15
6 0 5 -7 -2 -15z m-25 -118 c-5 -10 -33 -29 -62 -43 -67 -33 -106 -25 -111 24
-3 32 -3 32 42 32 33 0 52 6 72 23 l27 23 21 -20 c17 -16 19 -25 11 -39z m47
4 c2 -17 1 -28 -4 -25 -8 5 -12 54 -4 54 2 0 6 -13 8 -29z m47 -15 c-11 -12
-29 2 -29 25 0 18 1 18 19 2 10 -10 15 -22 10 -27z m561 10 c0 -15 -11 -33
-27 -46 l-28 -22 -3 22 c-3 21 32 70 50 70 4 0 8 -11 8 -24z m-74 -58 c-3 -18
-16 -41 -28 -51 -22 -18 -22 -18 -30 4 -14 36 -5 63 22 70 41 11 43 10 36 -23z
m-499 -110 c54 -66 106 -132 116 -145 39 -49 3 -64 -105 -42 -50 10 -57 15
-86 59 -29 44 -102 194 -102 209 0 3 17 13 38 23 20 9 38 17 39 17 1 1 46 -54
100 -121z m423 -48 c9 -16 8 -18 -5 -14 -38 15 -69 -51 -45 -97 9 -16 7 -19
-14 -19 -25 0 -36 16 -36 56 0 69 74 123 100 74z m-115 -75 c0 -73 7 -68 -109
-81 -58 -7 -58 -6 -51 17 11 35 53 77 105 104 25 13 47 24 50 25 3 0 5 -29 5
-65z m175 -15 c76 -65 142 -108 176 -116 l29 -7 -22 21 c-19 19 -50 89 -41 96
9 9 130 67 133 64 12 -15 25 -114 25 -191 0 -120 -21 -197 -53 -197 -45 0
-125 51 -194 123 -117 123 -183 245 -140 260 16 6 22 2 87 -53z"/>
<path d="M6190 2516 c0 -9 7 -52 16 -94 18 -86 60 -180 130 -292 45 -71 104
-214 104 -252 0 -10 4 -18 10 -18 30 0 24 146 -11 260 -18 56 -48 112 -121
223 -54 81 -98 151 -98 156 0 5 -7 14 -15 21 -12 10 -15 9 -15 -4z m119 -209
c61 -92 101 -180 114 -247 6 -31 3 -28 -27 25 -18 33 -52 89 -74 124 -48 73
-96 191 -78 191 2 0 31 -42 65 -93z"/>
<path d="M6360 1781 c-18 -34 -11 -45 14 -22 l24 22 16 -22 c9 -13 23 -45 32
-72 9 -26 18 -46 21 -43 10 10 -8 92 -27 124 -23 37 -63 44 -80 13z"/>
<path d="M3613 1721 c-73 -19 -116 -68 -117 -134 -1 -34 3 -43 24 -54 31 -16
114 -16 159 0 45 16 91 74 98 125 5 34 2 42 -16 52 -29 15 -108 21 -148 11z"/>
<path d="M2178 1650 c-27 -32 -48 -62 -48 -65 0 -3 23 -5 50 -5 l50 0 0 34 c0
18 3 48 6 65 4 17 3 31 -2 31 -5 0 -30 -27 -56 -60z"/>
<path d="M6345 1320 l-20 -9 20 -1 c14 -1 8 -7 -20 -20 -46 -21 -78 -24 -105
-10 -16 8 -18 8 -14 -5 8 -19 -6 -19 -34 1 -12 8 -22 10 -22 5 0 -6 11 -18 25
-27 15 -9 36 -38 48 -63 15 -32 27 -45 40 -43 11 2 21 -7 28 -25 15 -41 49
-73 77 -73 32 0 76 48 114 124 17 34 45 79 63 101 l32 40 -76 0 c-42 0 -89 3
-106 7 -16 4 -39 3 -50 -2z m-49 -87 c3 -16 7 -34 10 -41 3 -10 -32 -32 -50
-32 -2 0 -11 18 -21 40 -20 43 -12 67 11 36 14 -19 14 -19 14 2 0 32 28 27 36
-5z m132 -111 c-34 -46 -70 -64 -90 -44 -11 11 3 45 35 80 25 27 41 29 27 2
-15 -28 2 -25 31 6 37 39 35 9 -3 -44z"/>
<path d="M1244 1165 c-3 -14 -10 -25 -15 -25 -5 0 -9 -7 -9 -15 0 -12 18 -15
98 -16 53 0 117 -3 142 -5 66 -5 94 3 112 34 28 49 20 52 -158 52 l-164 0 -6
-25z"/>
<path d="M1274 963 l-112 -4 -5 -27 c-3 -15 -9 -36 -13 -46 -7 -18 -1 -19 176
-13 180 5 183 6 209 31 21 21 24 30 15 44 -12 19 -57 21 -270 15z"/>
<path d="M3923 1086 c-29 -36 -53 -67 -53 -70 0 -3 24 -6 54 -6 47 0 54 3 60
23 8 32 7 117 -1 117 -5 0 -32 -29 -60 -64z"/>
<path d="M4475 1126 c-8 -20 -15 -38 -15 -41 0 -3 45 -5 100 -5 88 0 103 3
121 21 11 11 19 28 17 37 -3 14 -19 17 -106 20 l-103 3 -14 -35z"/>
<path d="M5063 1140 c-56 -34 -93 -113 -68 -147 20 -26 115 -24 152 3 65 48
94 132 54 154 -32 16 -103 12 -138 -10z"/>
<path d="M6617 709 c-15 -9 -16 -13 -6 -25 7 -8 21 -20 31 -25 16 -9 18 -6 18
26 0 37 -11 43 -43 24z"/>
</g>
</svg>
