<?xml version="1.0" standalone="no"?>
<!DOCTYPE svg PUBLIC "-//W3C//DTD SVG 20010904//EN"
 "http://www.w3.org/TR/2001/REC-SVG-20010904/DTD/svg10.dtd">
<svg version="1.0" xmlns="http://www.w3.org/2000/svg"
 width="4096.000000pt" height="1456.000000pt" viewBox="0 0 4096.000000 1456.000000"
 preserveAspectRatio="xMidYMid meet">

<g transform="translate(0.000000,1456.000000) scale(0.100000,-0.100000)"
fill="#000000" stroke="none">
<path d="M20040 14553 c-892 -6 -1993 -41 -2785 -88 -137 -8 -329 -20 -425
-25 -216 -13 -886 -63 -1195 -90 -847 -73 -1487 -144 -2485 -275 -970 -128
-2279 -355 -3225 -560 -66 -14 -160 -34 -210 -45 -447 -95 -1250 -293 -1745
-430 -513 -142 -945 -272 -1430 -432 -1004 -330 -1888 -688 -2705 -1093 -967
-479 -1667 -928 -2315 -1484 -166 -142 -492 -467 -624 -621 -508 -594 -797
-1198 -871 -1818 -20 -163 -20 -461 0 -624 147 -1233 1158 -2415 2968 -3472
365 -213 968 -524 1282 -660 l60 -26 -31 25 c-18 13 -83 61 -145 106 -63 45
-145 105 -184 134 -58 43 -1433 1043 -2280 1659 -121 88 -305 222 -410 298
-104 76 -260 189 -345 250 -85 62 -189 137 -230 168 l-75 55 184 5 183 5 -296
215 -296 215 255 3 c140 1 255 4 255 7 0 2 -17 32 -37 67 -59 101 -147 293
-196 429 -191 525 -197 1085 -19 1609 237 695 794 1373 1652 2012 1008 750
2456 1448 4215 2030 256 84 617 198 778 244 92 26 99 30 119 66 l22 38 110 0
c61 0 127 5 146 10 796 235 2219 562 3260 750 124 22 275 49 335 60 525 95
1364 222 2110 319 1188 155 2751 294 4010 356 171 8 400 20 510 25 403 20
1217 41 1870 49 2743 33 5495 -128 8040 -470 496 -67 1256 -182 1575 -238 58
-11 161 -29 230 -41 486 -84 1178 -220 1660 -326 515 -112 1308 -307 1615
-396 l150 -43 820 -3 c488 -1 816 1 810 7 -17 15 -743 250 -1107 357 -177 52
-425 123 -483 139 -27 7 -100 27 -162 44 -258 71 -433 116 -773 201 -282 71
-385 95 -740 175 -370 83 -348 78 -690 150 -512 107 -1241 241 -1800 329 -124
20 -252 41 -285 46 -171 28 -680 102 -1000 144 -853 113 -1504 183 -2505 271
-199 17 -892 66 -1265 89 -380 24 -1284 64 -1705 76 -372 10 -1777 31 -1835
27 -16 -1 -158 -3 -315 -4z"/>
<path d="M19435 13689 c-3781 -67 -7397 -485 -10440 -1206 l-120 -28 2955 -5
c2205 -4 2965 -9 2995 -17 32 -10 42 -9 56 3 13 12 152 14 977 14 529 0 962
-2 962 -5 0 -3 -20 -37 -45 -77 -25 -40 -45 -76 -45 -80 0 -5 43 -8 95 -8 52
0 95 -3 95 -7 -1 -5 -47 -81 -103 -171 -56 -89 -241 -386 -412 -659 -170 -273
-372 -595 -447 -715 -76 -121 -138 -222 -138 -224 0 -2 21 -4 48 -4 l47 0 170
272 c94 149 172 276 174 281 4 12 699 1118 835 1329 l36 57 253 3 c138 2 1262
3 2497 3 1737 0 2254 -3 2285 -12 34 -10 42 -10 51 3 10 13 157 14 1235 11
1345 -3 1268 0 1411 -63 l57 -26 73 25 c189 65 79 61 1646 64 l1424 4 -23 -38
c-13 -21 -36 -58 -52 -83 l-28 -45 23 -3 c25 -4 39 10 124 136 l56 82 1847 1
c1145 0 1838 4 1826 10 -56 26 -1256 277 -1740 364 -609 109 -626 112 -1015
174 -685 108 -994 152 -1785 251 -366 45 -948 107 -1505 160 -656 61 -1549
125 -2260 160 -217 11 -444 22 -505 25 -242 12 -1070 36 -1575 45 -594 11
-1391 10 -2015 -1z"/>
<path d="M28045 11753 c-159 -235 -332 -489 -384 -566 -51 -76 -92 -139 -90
-141 2 -2 83 -47 179 -101 96 -53 179 -101 184 -106 6 -5 -18 -50 -62 -116
-40 -59 -71 -112 -68 -117 2 -6 65 -44 140 -85 75 -41 136 -79 136 -83 0 -5
-109 -167 -241 -359 -237 -342 -242 -349 -275 -349 -19 0 -34 2 -34 5 0 3 65
103 145 223 l145 217 -669 5 -669 5 162 260 163 260 -98 3 c-55 1 -99 6 -99
10 0 24 30 32 115 32 l90 0 176 283 176 282 -99 3 c-54 1 -98 5 -98 8 0 3 9
19 21 35 20 29 21 29 124 29 l104 0 86 138 c47 75 126 200 175 277 49 77 90
143 90 147 0 4 -45 9 -99 10 l-100 3 50 75 49 75 -1093 3 c-1204 3 -1171 4
-1322 -59 -40 -17 -104 -54 -142 -84 l-69 -53 -12 43 c-15 58 -51 98 -114 126
l-53 24 -1131 3 -1131 2 -54 -87 -53 -87 -8 32 c-14 52 -69 99 -146 122 -66
20 -83 21 -1042 18 -1080 -4 -1025 -1 -1162 -69 -32 -16 -58 -27 -58 -24 0 4
11 23 25 43 14 20 25 40 25 44 0 5 -589 8 -1309 8 l-1310 0 -158 -252 c-87
-138 -192 -306 -234 -372 l-76 -121 66 -3 66 -3 -63 -31 c-119 -57 -159 -108
-460 -590 -149 -241 -272 -440 -272 -443 0 -3 43 -5 95 -5 52 0 95 -3 95 -7 0
-4 -14 -31 -32 -60 l-32 -53 -221 0 -221 0 -107 -145 -107 -145 -1452 0 -1453
0 -54 -80 -54 -80 -99 0 c-60 0 -98 4 -98 10 0 6 63 105 140 220 77 115 140
212 140 214 0 3 -7 6 -16 8 -11 2 32 79 161 286 175 281 176 282 210 282 19 0
35 -2 35 -5 0 -2 -61 -102 -135 -222 l-136 -218 96 -3 c66 -2 95 -6 95 -15 0
-7 -18 -39 -40 -72 -22 -33 -40 -63 -40 -67 0 -5 508 -8 1129 -8 l1128 0 535
858 c295 471 549 880 566 907 l31 50 -99 5 -100 5 45 70 c24 39 45 73 45 78 0
4 -262 7 -583 7 l-582 0 -50 -80 c-27 -44 -53 -80 -56 -80 -4 0 -10 11 -13 25
-11 44 -74 94 -146 116 -64 19 -89 20 -1040 17 l-975 -3 -73 -23 c-41 -12 -96
-34 -123 -47 -27 -14 -49 -23 -49 -20 0 3 11 23 25 43 14 20 25 40 25 44 0 5
-262 8 -582 8 l-583 -1 -198 -319 c-187 -303 -200 -320 -228 -320 -16 0 -29 5
-29 11 0 6 63 112 140 235 77 123 140 226 140 229 0 2 -45 6 -100 7 l-100 3
45 70 c25 38 45 73 45 77 0 4 -789 8 -1754 8 l-1754 0 -176 -280 c-97 -154
-176 -283 -176 -285 0 -3 43 -5 95 -5 56 0 95 -4 95 -10 0 -5 -20 -41 -45 -80
l-45 -70 215 0 c118 0 215 -4 215 -9 0 -5 -150 -249 -334 -542 l-333 -534 98
-3 c55 -1 99 -6 99 -10 0 -4 -10 -23 -23 -42 -13 -19 -33 -52 -46 -72 l-23
-38 586 0 585 0 278 445 c153 244 290 463 304 487 15 24 65 104 112 178 l85
135 156 3 c122 2 156 0 155 -10 0 -7 -150 -251 -333 -543 l-332 -530 98 -3
c54 -1 98 -6 98 -10 0 -4 -20 -38 -45 -77 l-44 -70 177 -3 c97 -1 180 -6 183
-10 4 -4 -32 -59 -80 -122 l-86 -115 -1455 -3 -1455 -3 -132 -197 c-72 -108
-242 -362 -378 -564 l-247 -368 -814 0 c-448 0 -814 -2 -814 -5 0 -3 65 -103
145 -223 l145 -217 -30 -5 -31 -5 111 -168 111 -168 -145 -212 c-79 -117 -177
-260 -218 -320 -40 -59 -271 -397 -513 -752 -242 -355 -504 -739 -583 -855
l-143 -210 -641 -2 -641 -3 111 -80 c60 -44 191 -138 291 -210 99 -71 180
-133 181 -137 0 -4 -81 -9 -179 -10 l-180 -3 296 -215 c163 -118 339 -247 392
-285 262 -193 2108 -1534 2149 -1563 l48 -32 677 2 677 3 -100 144 c-55 80
-100 148 -100 153 0 4 758 8 1684 8 l1683 0 71 102 c38 57 173 254 300 438
127 184 261 379 298 433 38 56 72 96 79 93 7 -2 127 -87 266 -189 140 -101
551 -399 914 -662 363 -263 678 -491 699 -506 l40 -29 553 0 c304 0 553 -3
553 -7 0 -4 -54 -151 -120 -328 -66 -177 -120 -327 -120 -334 0 -10 132 -12
688 -8 693 4 741 7 854 43 16 5 19 2 16 -18 l-3 -23 626 -3 c494 -2 629 1 637
10 5 7 29 65 52 128 23 63 45 121 50 129 5 10 38 -27 114 -128 l107 -141 394
0 394 0 39 102 c21 57 68 181 103 276 l64 172 132 0 c81 0 133 -4 133 -10 0
-5 -11 -38 -24 -72 -63 -161 -166 -443 -166 -455 0 -11 130 -13 723 -13 l723
0 74 75 74 75 168 0 168 0 6 -27 c3 -16 11 -48 18 -73 l12 -45 599 -3 c407 -1
602 1 609 8 6 6 25 48 41 93 28 76 33 82 59 82 25 0 32 -9 74 -90 l47 -90 473
-3 473 -2 -6 21 c-7 20 -5 21 26 15 167 -33 215 -38 429 -38 183 0 249 4 355
21 368 61 603 210 730 463 102 204 96 357 -21 471 l-48 47 347 0 c191 0 347
-2 347 -4 0 -1 -36 -99 -80 -217 -44 -118 -80 -217 -80 -221 0 -5 115 -8 255
-8 140 0 255 -3 255 -7 -1 -5 -45 -125 -99 -268 -54 -143 -96 -263 -94 -267 2
-5 330 -8 728 -8 l723 0 70 75 70 75 171 0 c169 0 171 0 175 -23 3 -12 10 -46
16 -74 l12 -53 604 0 c603 0 603 0 615 21 6 12 28 68 49 125 22 57 43 111 48
119 6 13 31 -14 113 -122 l104 -138 394 0 c340 0 395 2 403 15 4 8 15 32 23
53 l15 37 60 -30 c130 -66 383 -98 620 -80 112 8 160 16 287 45 17 4 22 0 25
-17 l3 -23 258 -3 258 -2 15 36 c12 27 19 34 32 29 122 -51 272 -67 617 -67
312 0 496 17 634 58 59 17 68 15 51 -15 -6 -12 -8 -26 -5 -31 4 -7 515 -10
1439 -10 l1433 0 98 263 c54 144 100 268 103 275 3 9 -80 12 -393 12 -313 0
-396 3 -393 13 3 6 40 108 83 225 l79 212 380 0 381 1 375 545 c337 489 933
1352 1088 1574 32 47 243 352 468 678 l409 592 642 0 c354 0 643 3 643 8 -1 4
-134 104 -298 222 l-297 215 184 5 184 5 -289 209 c-159 116 -320 233 -359
261 -38 29 -533 389 -1100 800 -566 411 -1050 763 -1074 781 l-44 34 -708 0
-709 0 151 -207 c83 -113 153 -212 156 -219 3 -9 -8 -14 -37 -16 l-41 -3 45
-60 45 -60 -605 -3 c-332 -1 -876 -1 -1208 0 l-604 3 542 785 543 785 1559 3
1559 2 44 73 c48 79 393 637 655 1061 91 147 166 270 166 272 0 2 -110 4 -245
4 -135 0 -245 2 -245 4 0 3 57 96 126 208 70 112 129 209 131 216 4 9 -736 12
-3678 12 l-3684 -1 -290 -426z m-18196 200 c-13 -21 -58 -92 -100 -158 l-77
-120 -638 -5 c-352 -3 -612 -8 -579 -12 33 -4 159 -19 279 -33 121 -14 221
-27 223 -29 2 -2 -162 -267 -363 -590 l-367 -586 -424 0 c-232 0 -423 2 -423
4 0 6 750 1210 761 1221 5 5 9 13 9 17 0 4 -142 8 -315 8 -200 0 -315 4 -315
10 0 5 43 77 96 160 l96 150 1080 0 1080 0 -23 -37z m959 -123 l-100 -160
-302 -1 c-338 -2 -339 -1 73 -49 96 -11 176 -22 178 -24 2 -2 -28 -54 -66
-114 -39 -61 -71 -114 -71 -117 0 -3 134 -5 298 -5 l297 1 195 314 195 315
422 0 c233 0 423 -3 423 -6 0 -3 -219 -357 -487 -785 l-486 -779 -424 0 -424
0 12 22 c6 12 49 80 94 152 234 373 265 424 265 434 0 14 -567 17 -585 4 -6
-4 -96 -143 -199 -309 l-188 -303 -424 0 c-401 0 -424 1 -415 18 8 15 379 611
812 1304 l154 248 427 0 427 0 -101 -160z m3940 140 c48 -29 58 -58 43 -124
-14 -63 5 -30 -491 -825 l-375 -600 -424 -1 c-346 0 -422 2 -418 13 3 7 86
144 186 304 100 160 181 294 181 297 0 3 -134 6 -298 6 l-297 0 -193 -310
-193 -310 -425 0 c-337 0 -424 3 -418 13 4 6 200 321 436 699 364 582 437 694
486 739 56 52 131 92 201 108 20 5 470 9 1001 10 947 1 966 1 998 -19z m1240
12 c-1 -4 -45 -76 -97 -160 l-95 -152 -305 -1 c-335 -2 -334 -2 33 -44 121
-14 221 -27 222 -28 2 -1 -83 -140 -188 -307 -105 -168 -205 -328 -222 -356
-17 -28 -96 -156 -176 -283 l-145 -231 -422 0 c-233 0 -423 2 -423 5 0 5 302
492 533 860 45 72 163 259 261 418 l178 287 425 0 c234 0 423 -4 421 -8z
m3702 2 c0 -12 -434 -701 -459 -727 -73 -80 -170 -119 -346 -141 -66 -8 -307
-40 -535 -71 -228 -31 -482 -65 -565 -76 -82 -10 -162 -22 -176 -25 -20 -4
-40 -27 -83 -96 -31 -50 -55 -92 -53 -94 2 -2 136 -4 298 -5 l294 -1 40 66 40
65 423 1 c331 0 422 -3 421 -12 0 -7 -62 -110 -137 -228 l-137 -215 -1148 -3
c-778 -1 -1147 1 -1147 8 0 17 432 702 468 742 41 46 134 93 222 112 36 8 155
27 265 41 110 14 265 34 345 45 80 11 282 38 450 60 168 22 317 43 331 46 23
4 73 73 136 187 2 4 -272 6 -609 6 -667 -2 -670 -2 -236 -45 98 -10 183 -21
189 -25 9 -5 4 -21 -17 -53 l-29 -46 -407 0 c-223 0 -413 -3 -422 -6 -9 -4
-16 -1 -16 6 0 11 226 381 282 463 l19 27 1150 0 c632 0 1149 -3 1149 -6z
m2421 -32 c37 -41 37 -77 1 -158 -15 -34 -187 -317 -382 -630 -391 -627 -423
-670 -536 -715 l-59 -24 -964 -3 c-674 -2 -980 1 -1017 8 -90 19 -127 87 -89
161 9 16 183 296 387 622 223 358 389 611 417 640 57 60 94 83 179 113 l67 24
983 -3 984 -2 29 -33z m2503 28 c64 -24 85 -93 52 -172 -8 -19 -204 -338 -435
-708 l-420 -675 -425 -3 c-234 -1 -426 0 -426 2 0 2 173 282 385 621 212 339
385 619 385 621 0 2 -273 4 -607 3 -335 0 -603 -2 -598 -4 9 -4 535 -65 556
-65 10 0 17 11 -383 -630 -173 -278 -320 -515 -327 -527 l-12 -23 -424 0
c-234 0 -425 3 -425 6 0 3 159 261 353 572 195 312 413 663 486 780 l132 212
1054 0 c649 0 1063 -4 1079 -10z m2514 -150 l-100 -160 -987 -1 c-1059 -2
-1051 -1 -621 -44 91 -9 177 -20 191 -23 l27 -7 -73 -115 -73 -115 664 -3
c365 -1 664 -5 664 -8 0 -4 -44 -78 -97 -165 l-98 -159 -671 0 -672 0 -81
-130 c-45 -72 -82 -135 -84 -140 -1 -7 235 -10 671 -10 369 0 672 -3 672 -7 0
-5 -45 -78 -98 -163 l-98 -155 -1015 0 c-1004 0 -1014 0 -1049 21 -50 29 -67
63 -54 111 12 45 761 1243 807 1291 44 45 117 91 190 118 l62 23 1012 0 1012
1 -101 -160z m7809 -87 c-2 -5 -79 -131 -171 -280 l-168 -273 -2011 -2 -2011
-3 327 -185 c179 -102 326 -188 327 -191 0 -4 -85 -130 -189 -280 -270 -390
-301 -435 -563 -814 -129 -187 -250 -362 -269 -390 -57 -81 -136 -195 -308
-445 -89 -129 -329 -476 -532 -770 -1462 -2112 -2631 -3806 -2645 -3829 -19
-32 -24 -23 123 -228 40 -56 73 -104 73 -107 0 -3 -96 -6 -213 -6 l-213 0
-500 362 c-274 199 -528 382 -564 408 -279 200 -628 454 -640 466 -12 12 0 14
90 14 l105 1 187 272 c103 150 277 403 387 562 223 325 267 388 329 478 24 34
140 202 257 372 117 171 232 337 255 370 23 33 138 200 255 370 117 171 232
337 255 370 23 33 138 200 255 370 117 171 232 337 255 370 67 97 494 717
1157 1679 191 277 279 412 270 417 -64 34 -654 363 -660 368 -4 4 48 88 115
187 68 98 152 223 188 276 l65 97 3193 1 c1756 0 3191 -3 3189 -7z m-11547
-362 c0 -4 -150 -248 -333 -542 l-334 -534 99 -3 c54 -1 98 -5 98 -8 0 -3 -15
-29 -33 -57 -19 -29 -39 -63 -46 -75 l-12 -22 585 0 585 0 43 70 c24 38 45 70
48 69 3 0 19 -19 35 -42 43 -59 108 -89 206 -95 43 -3 79 -8 79 -13 0 -5 -39
-61 -86 -124 l-85 -115 -1453 0 -1452 0 -160 -237 c-88 -131 -260 -388 -383
-570 l-224 -333 -884 0 -884 0 326 485 c179 267 325 487 325 490 0 3 -112 5
-248 5 -137 0 -251 3 -255 6 -3 3 54 95 126 205 l132 198 995 1 c1058 0 1071
1 1169 48 44 21 50 18 26 -14 -8 -10 -15 -22 -15 -26 0 -5 262 -8 583 -8 l583
0 148 238 c82 130 160 255 175 278 14 22 123 196 241 387 211 340 216 347 248
347 17 0 32 -4 32 -9z m-12826 -643 c-4 -7 -65 -106 -136 -220 -70 -113 -128
-209 -128 -212 0 -3 43 -6 95 -6 52 0 95 -3 95 -7 0 -4 -14 -31 -32 -60 l-32
-53 -138 0 c-76 0 -138 2 -138 4 0 3 283 461 336 544 11 16 24 22 50 22 25 0
33 -3 28 -12z m8498 -533 l30 -25 -81 0 -81 0 26 43 c44 71 45 71 62 37 8 -17
28 -42 44 -55z m-7414 -875 l-282 -420 -2638 0 -2638 0 187 280 187 280 1451
1 1450 0 100 140 100 139 1182 0 1183 0 -282 -420z m6782 415 c0 -3 -124 -192
-277 -420 l-276 -415 -2640 0 -2639 0 16 25 c9 13 93 138 186 277 l171 253
1451 5 1451 5 101 138 100 137 1178 0 c648 0 1178 -2 1178 -5z m8588 -4 c-1
-5 -127 -194 -278 -420 l-275 -410 -2638 -1 c-2108 0 -2637 3 -2631 13 4 6 88
132 187 280 l179 267 1448 0 1449 0 101 140 101 140 1181 0 c721 0 1178 -4
1176 -9z m7745 -1227 c293 -213 555 -403 582 -424 28 -20 173 -127 324 -236
l275 -199 -102 -3 -102 -3 -62 -89 c-35 -49 -82 -118 -106 -152 -175 -254
-1644 -2378 -1882 -2723 l-298 -430 -1631 -3 c-897 -1 -1631 -5 -1631 -8 0 -3
45 -70 100 -149 55 -79 100 -146 100 -149 0 -3 -96 -6 -213 -6 l-213 0 -275
200 c-150 110 -335 245 -409 299 -74 54 -205 149 -290 211 -321 235 -568 415
-648 473 -45 32 -85 63 -88 68 -3 5 41 9 103 9 l108 1 39 57 c311 458 912
1331 925 1345 16 16 95 17 1459 15 l1443 -3 -146 -210 c-81 -115 -167 -240
-193 -277 l-47 -68 -261 0 -261 0 -43 -62 c-24 -35 -66 -97 -95 -138 -28 -41
-143 -208 -255 -370 -112 -162 -222 -322 -245 -355 -123 -177 -215 -314 -215
-319 0 -3 200 -6 445 -6 l444 0 39 53 c31 43 298 431 851 1235 40 59 202 294
359 522 158 228 322 468 367 532 44 65 152 222 240 350 88 127 164 237 168
245 7 11 -71 13 -446 13 l-453 0 -144 -212 c-79 -117 -164 -243 -190 -280
l-45 -67 -1188 -1 c-654 0 -1186 4 -1183 8 3 5 129 188 281 406 l275 398 -105
149 c-58 82 -105 151 -105 154 0 3 832 5 1848 5 l1849 0 97 135 c60 84 94 140
90 147 -4 7 -52 74 -106 149 -54 75 -98 140 -98 143 0 3 97 6 215 6 l216 0
532 -386z m-18779 29 c110 -81 280 -205 376 -275 96 -71 211 -155 255 -186
417 -303 730 -534 732 -540 2 -4 -43 -77 -100 -162 l-102 -155 -105 -26 c-58
-15 -211 -54 -340 -87 -129 -34 -352 -91 -495 -127 -143 -37 -267 -71 -275
-76 -9 -5 121 -9 316 -9 l332 0 91 -115 92 -116 -101 -147 c-117 -170 -1177
-1711 -1294 -1882 -44 -63 -122 -177 -174 -252 l-95 -138 -1633 0 -1633 0 105
-151 c57 -84 104 -154 104 -155 0 -2 -96 -4 -212 -4 l-213 1 -285 207 c-157
114 -458 333 -670 486 -212 154 -469 340 -572 415 l-188 136 105 3 104 3 262
382 c145 210 277 402 294 427 17 25 235 342 485 705 249 363 462 671 473 685
13 17 51 36 120 61 56 19 230 80 386 135 l284 99 -492 3 c-348 1 -491 5 -491
13 0 6 43 72 96 146 53 75 98 142 101 149 3 7 -40 80 -96 161 l-100 148 599 3
599 2 181 -110 181 -110 242 109 242 108 569 7 c457 5 567 4 563 -6 -4 -12
-83 -128 -534 -791 -62 -92 -116 -173 -119 -180 -4 -11 7 -12 58 -5 35 5 248
33 473 63 226 30 419 57 431 60 14 3 59 61 129 167 59 90 161 237 225 328 64
91 158 225 208 298 l90 133 -104 150 c-57 83 -104 152 -104 155 0 2 95 4 211
4 l212 0 201 -147z m-8530 -225 c-6 -11 -289 -421 -433 -628 -24 -36 -288
-416 -584 -845 -848 -1225 -900 -1299 -1156 -1668 -132 -192 -241 -350 -241
-353 0 -2 35 -4 78 -4 l77 0 161 198 c89 108 300 366 469 572 170 206 390 474
489 595 99 121 241 294 316 385 75 91 207 253 295 360 88 107 202 247 255 310
52 64 274 335 494 603 l398 487 1447 0 1447 0 105 -152 c57 -84 104 -158 103
-163 -1 -10 -97 -152 -838 -1230 -197 -286 -462 -672 -589 -858 -128 -185
-335 -487 -461 -670 -274 -399 -337 -490 -519 -757 -77 -113 -149 -215 -160
-227 l-20 -23 -816 1 c-449 1 -978 5 -1177 8 l-361 6 111 161 c61 89 246 358
411 598 165 240 332 483 371 539 38 56 311 453 606 882 294 429 569 830 611
890 42 61 126 183 187 273 l111 162 -49 0 -50 0 -218 -267 c-121 -146 -271
-330 -334 -407 -311 -379 -1102 -1343 -1685 -2054 l-650 -792 -502 0 c-277 0
-503 -3 -503 -6 0 -3 43 -68 95 -144 52 -76 95 -141 95 -144 0 -3 -93 -6 -206
-6 l-207 0 -855 623 -856 622 107 5 106 5 177 260 c194 285 298 437 629 923
121 177 327 479 457 670 328 481 342 501 500 732 77 113 143 211 145 218 3 7
-33 70 -79 140 -46 70 -93 139 -102 155 l-18 27 1411 0 c1127 0 1411 -3 1405
-12z m13373 -20 c-8 -13 -77 -114 -153 -225 -162 -236 -468 -684 -779 -1138
-432 -632 -673 -985 -732 -1070 -38 -55 -120 -174 -182 -265 -62 -91 -205
-300 -318 -465 -113 -165 -208 -306 -210 -312 -4 -10 46 -13 230 -13 l235 0
448 653 c247 358 544 792 662 962 855 1241 946 1373 1122 1631 85 125 162 235
170 245 15 19 46 19 1195 17 l1181 -3 -288 -420 c-158 -231 -380 -555 -494
-720 -438 -640 -622 -908 -757 -1105 -77 -113 -164 -239 -192 -280 -217 -314
-665 -971 -665 -975 0 -3 91 -5 203 -5 l203 0 73 108 c39 59 123 181 186 272
63 91 140 203 172 250 32 47 213 312 403 588 492 717 690 1005 900 1312 102
148 259 378 350 510 91 132 201 292 244 355 l79 115 1188 0 1188 0 -116 -167
c-64 -93 -135 -195 -157 -227 -40 -58 -1162 -1681 -1246 -1801 -23 -33 -189
-274 -370 -535 -181 -261 -347 -502 -370 -535 -23 -33 -152 -220 -287 -415
-134 -195 -252 -363 -260 -372 -15 -17 -106 -18 -1641 -18 l-1626 0 -216 120
-217 119 -231 -119 -230 -120 -721 0 c-397 0 -721 -3 -721 -6 0 -3 41 -65 91
-137 50 -73 94 -138 96 -144 4 -10 -41 -13 -205 -13 l-211 0 -853 621 c-469
341 -854 624 -856 630 -2 5 39 9 100 9 l104 0 115 167 c264 387 386 566 475
698 52 77 128 187 167 245 40 58 126 184 191 280 66 96 152 222 191 280 113
165 478 701 583 855 53 77 115 168 139 202 24 35 43 68 43 73 0 6 -45 78 -100
160 l-100 150 1396 0 1396 0 -15 -22z m-3143 -299 l27 -40 -37 -50 -36 -50
-32 24 c-17 13 -70 52 -118 86 -49 35 -88 65 -88 67 0 2 58 4 129 4 l128 0 27
-41z m11089 -4034 c438 -319 796 -583 796 -586 1 -4 -18 -18 -41 -32 l-43 -25
-33 29 c-89 79 -248 124 -493 140 -286 20 -597 -15 -779 -86 -35 -14 -65 -23
-67 -21 -2 1 4 22 12 46 8 23 15 46 15 51 0 5 -105 9 -234 9 -195 0 -235 2
-239 14 -5 11 4 16 32 18 l39 3 -89 125 c-50 69 -105 148 -124 177 l-35 52
192 278 c106 153 211 304 232 336 22 32 45 56 52 55 6 -2 369 -264 807 -583z
m-3925 366 c20 -15 102 -75 182 -133 80 -57 285 -206 455 -329 171 -124 406
-294 523 -379 116 -84 212 -159 212 -166 0 -7 -23 -72 -50 -146 -28 -73 -53
-139 -56 -147 -8 -23 -14 -8 -39 90 -13 52 -35 139 -50 194 -14 55 -31 117
-36 138 l-10 37 -412 0 c-357 0 -416 -2 -435 -16 -20 -14 -22 -14 -22 0 0 14
-52 16 -456 18 l-455 3 298 432 c164 238 302 433 306 433 5 0 25 -13 45 -29z
m-8051 -416 l578 -420 -604 -5 -604 -5 -48 -130 c-27 -71 -50 -134 -52 -140
-2 -5 -52 55 -110 133 l-108 142 -115 0 -115 0 64 93 c193 278 276 400 419
610 56 81 105 146 109 145 5 -2 269 -192 586 -423z m3476 -387 l61 -33 -67 -3
c-37 -2 -97 -2 -134 0 l-68 3 60 32 c33 18 66 32 74 33 7 0 41 -15 74 -32z
m-7333 -147 c0 -5 -6 -23 -14 -41 l-13 -32 -22 35 c-11 19 -21 37 -21 41 0 3
16 6 35 6 19 0 35 -4 35 -9z m6641 -13 c-5 -13 -34 -93 -66 -178 -32 -85 -61
-159 -65 -163 -5 -6 -100 332 -100 357 0 3 54 6 120 6 l120 0 -9 -22z m1719
17 c0 -5 -121 -69 -131 -70 -3 0 -20 17 -38 38 l-33 37 101 0 c56 0 101 -2
101 -5z m807 -45 c257 -23 383 -71 440 -168 23 -39 25 -51 20 -120 -11 -174
-135 -335 -322 -417 -163 -72 -379 -101 -695 -91 -274 8 -386 34 -479 112 -69
57 -87 145 -55 255 51 174 193 305 397 369 181 57 459 81 694 60z m6959 -19
c122 -21 202 -53 256 -100 46 -40 60 -75 56 -142 l-3 -54 -224 -3 -223 -2 -23
24 c-33 35 -84 48 -227 53 -220 9 -340 -34 -392 -139 -36 -72 -35 -122 5 -159
41 -38 76 -44 269 -44 135 0 174 3 212 18 25 10 52 25 58 33 11 12 -9 14 -149
14 -88 0 -161 3 -161 8 1 4 13 39 28 77 l28 70 387 3 c419 2 400 5 378 -50 -5
-13 -31 -79 -56 -148 -26 -69 -56 -149 -67 -177 l-20 -53 -130 0 -129 0 7 56
7 56 -49 -25 c-57 -28 -154 -60 -239 -79 -96 -20 -491 -17 -580 5 -226 57
-311 162 -267 333 78 307 422 464 983 448 88 -2 204 -12 265 -23z m1421 19
c236 -18 380 -59 424 -122 26 -35 35 -98 20 -127 -11 -20 -17 -21 -227 -21
-212 0 -216 0 -234 23 -18 22 -21 22 -279 22 -234 0 -262 -2 -278 -17 -36 -36
-7 -41 339 -55 345 -13 463 -27 551 -65 87 -38 108 -96 66 -188 -63 -139 -237
-217 -542 -241 -167 -13 -653 -6 -742 11 -204 38 -286 109 -258 221 l9 34 227
3 c192 2 227 0 227 -12 0 -33 67 -41 335 -41 270 0 310 6 303 43 -5 25 -44 30
-343 42 -402 16 -530 38 -602 106 -28 27 -33 38 -33 78 0 116 100 207 282 255
188 51 492 71 755 51z m-16157 -28 c57 -19 100 -65 100 -106 0 -67 -34 -121
-116 -184 l-45 -34 41 -35 c71 -61 85 -113 51 -188 -37 -83 -106 -138 -226
-181 l-80 -29 -632 -3 c-504 -2 -633 0 -633 10 0 7 20 64 44 128 25 63 61 160
82 215 20 55 62 165 92 245 29 80 56 153 59 163 5 17 38 17 617 15 442 -3 621
-7 646 -16z m698 -114 c-58 -154 -119 -317 -178 -473 -23 -60 -46 -125 -51
-142 l-10 -33 -226 0 c-176 0 -224 3 -220 13 18 47 77 204 147 392 45 121 95
255 112 298 l29 77 224 0 223 0 -50 -132z m882 -91 c91 -122 170 -221 175
-221 6 1 38 78 73 170 35 93 73 193 85 222 l21 52 223 0 223 0 -24 -62 c-118
-313 -171 -452 -222 -590 l-47 -128 -296 0 -296 1 -170 229 c-93 125 -173 225
-177 222 -4 -4 -18 -36 -31 -72 -28 -76 -89 -241 -120 -322 l-22 -58 -222 0
c-123 0 -223 1 -223 3 0 2 23 64 51 138 54 143 55 147 117 314 22 61 59 158
82 218 l41 107 297 -1 297 0 165 -222z m2315 156 c-14 -38 -33 -90 -44 -118
l-19 -50 -262 -5 -262 -5 -34 -95 c-32 -88 -98 -264 -146 -387 l-20 -53 -224
0 -224 0 19 48 c39 99 181 480 181 486 0 3 -115 6 -255 6 -162 0 -255 4 -255
10 0 9 11 38 69 187 l16 43 742 0 743 0 -25 -67z m965 52 c0 -14 110 -441 165
-640 38 -140 63 -126 -217 -123 l-243 3 -14 68 -14 67 -261 0 -262 0 -63 -70
-62 -70 -247 0 -247 0 390 390 390 390 342 0 c300 0 343 -2 343 -15z m1632 4
c145 -31 231 -123 214 -231 -10 -59 -52 -134 -102 -183 -46 -45 -150 -109
-197 -120 -15 -4 -27 -8 -27 -10 0 -1 29 -53 64 -114 l65 -111 -267 0 -267 0
-45 88 -45 87 -136 3 -136 3 -34 -91 -34 -90 -222 0 c-123 0 -223 2 -223 5 0
2 4 14 10 27 5 13 66 176 136 363 69 186 130 349 135 362 l9 23 524 0 c351 0
543 -4 578 -11z m4061 -56 c-14 -38 -33 -90 -42 -118 l-18 -50 -263 -5 -262
-5 -101 -267 -100 -268 -223 0 -224 0 24 63 c13 34 26 69 29 77 11 29 80 216
114 304 18 49 33 90 33 92 0 2 -115 4 -255 4 -140 0 -255 4 -255 9 0 7 52 155
75 214 7 16 52 17 750 17 l743 0 -25 -67z m973 12 c6 -27 26 -103 43 -167 31
-118 71 -270 117 -446 13 -51 24 -97 24 -102 0 -6 -90 -10 -243 -10 l-244 0
-14 68 -14 67 -262 3 -261 2 -63 -70 -62 -70 -247 0 -247 0 391 390 391 390
340 -3 340 -2 11 -50z m1136 26 c12 -16 90 -119 173 -230 l150 -202 17 41 c10
22 24 59 32 83 8 23 39 107 70 187 l55 145 224 3 224 2 -88 -237 c-49 -131
-102 -272 -118 -313 -16 -41 -41 -110 -56 -152 l-28 -78 -296 0 -296 0 -170
229 c-94 127 -173 230 -177 230 -4 1 -10 -9 -13 -21 -3 -13 -41 -115 -83 -228
l-78 -205 -222 -3 c-122 -1 -222 -1 -222 1 0 4 16 47 80 222 10 28 31 82 45
120 15 39 44 117 65 175 50 138 90 242 96 252 3 4 137 8 299 8 l293 0 24 -29z
m5375 -81 l-40 -110 -418 0 -417 0 -11 -31 c-6 -18 -11 -36 -11 -41 0 -5 177
-7 410 -6 268 2 410 0 410 -7 0 -5 -14 -47 -32 -92 l-32 -83 -413 0 -412 0
-16 -30 c-8 -16 -15 -34 -15 -39 0 -7 136 -12 414 -13 l414 -3 -23 -60 c-13
-33 -31 -81 -40 -107 l-18 -48 -638 0 c-352 0 -639 2 -639 4 0 3 219 591 279
749 l11 27 638 0 639 0 -40 -110z m517 43 c-14 -38 -30 -79 -34 -93 -4 -14
-38 -104 -74 -200 -36 -96 -66 -176 -66 -177 0 -2 178 -3 396 -3 l395 0 -6
-22 c-9 -32 -53 -146 -70 -185 l-15 -33 -620 0 -620 0 21 53 c11 28 42 111 69
182 26 72 82 223 125 338 l77 207 224 0 224 0 -26 -67z m-15099 -473 c-82 -82
-151 -147 -153 -145 -4 3 56 170 94 263 l13 32 98 0 98 0 -150 -150z m6795
143 c0 -9 -282 -293 -291 -293 -3 0 19 68 50 150 l56 150 92 0 c51 0 93 -3 93
-7z"/>
<path d="M12765 11650 c77 -10 201 -24 276 -30 76 -7 142 -16 149 -20 8 -5 -6
-36 -49 -103 -33 -53 -65 -106 -71 -117 -11 -20 -9 -20 289 -20 l299 0 89 143
c49 78 93 148 97 155 6 9 -118 12 -606 11 l-613 -1 140 -18z"/>
<path d="M19965 11665 c6 -2 102 -13 215 -25 282 -29 351 -38 356 -43 3 -2
-112 -192 -256 -421 -143 -230 -260 -420 -260 -422 0 -2 135 -4 299 -4 l299 0
263 422 c145 232 275 439 288 460 l23 38 -618 -1 c-341 0 -614 -2 -609 -4z
m885 -281 c0 -8 -284 -465 -307 -493 -14 -17 -27 -22 -51 -19 l-33 3 122 195
c209 337 197 320 235 320 19 0 34 -3 34 -6z"/>
<path d="M25737 5958 c-20 -29 -56 -82 -82 -118 -54 -77 -110 -158 -209 -300
-218 -315 -276 -401 -276 -408 0 -7 234 -182 484 -362 34 -25 148 -107 252
-182 564 -410 646 -468 660 -468 10 0 0 20 -31 65 -26 36 -45 71 -42 78 4 10
167 249 357 522 23 33 94 137 159 230 64 94 152 222 196 285 146 212 216 314
281 410 36 52 96 140 134 195 76 109 74 105 62 105 -5 0 -15 -11 -22 -25 l-13
-25 -951 0 c-523 0 -946 4 -940 8 10 7 27 42 20 42 -2 0 -20 -24 -39 -52z"/>
<path d="M9558 9438 l-104 -143 -1449 -5 -1448 -5 -64 -93 c-34 -51 -63 -95
-63 -97 0 -3 1090 -5 2423 -5 l2422 1 155 232 c85 127 156 238 158 245 3 9
-194 12 -961 12 l-965 0 -104 -142z"/>
<path d="M13005 9198 c-33 -50 -62 -95 -63 -99 -2 -5 203 -8 468 -7 l472 3 64
90 c34 50 63 93 63 98 1 4 -212 7 -471 7 l-473 0 -60 -92z"/>
<path d="M34374 6012 c-6 -4 -16 -17 -23 -29 l-12 -23 -956 0 c-855 0 -954 2
-943 15 7 9 11 17 9 20 -3 2 -55 -69 -116 -158 -120 -174 -218 -316 -265 -381
-16 -23 -49 -70 -73 -106 -24 -36 -59 -85 -76 -110 -17 -25 -59 -85 -94 -135
-191 -279 -271 -394 -298 -432 l-30 -43 -664 0 c-379 0 -663 4 -663 9 0 5 16
33 37 62 45 67 242 353 298 434 23 33 77 112 120 175 43 63 97 142 120 175 23
33 77 112 120 175 44 63 102 148 130 189 87 126 96 141 86 141 -5 0 -11 -7
-15 -15 -5 -13 -120 -15 -951 -15 -749 0 -945 3 -945 13 0 11 -44 -39 -65 -74
-10 -17 -93 -138 -236 -344 -38 -55 -98 -143 -134 -195 -36 -52 -79 -113 -95
-135 -16 -22 -36 -52 -44 -67 l-16 -27 161 -118 c89 -65 216 -158 283 -207 66
-49 155 -114 197 -145 42 -31 147 -108 234 -171 87 -63 236 -173 332 -243 96
-71 181 -127 190 -125 10 2 -17 48 -91 156 l-105 152 1757 0 1757 0 45 65 c25
36 65 95 90 130 64 92 194 280 395 575 61 89 131 191 157 228 26 37 56 81 68
97 53 76 338 495 337 495 -1 0 -7 -4 -13 -8z"/>
<path d="M29175 6000 c-3 -5 -1 -10 4 -10 6 0 11 5 11 10 0 6 -2 10 -4 10 -3
0 -8 -4 -11 -10z"/>
<path d="M11776 8118 c4 -7 17 -26 29 -43 50 -68 50 -70 5 -133 -22 -32 -40
-61 -40 -65 0 -4 283 -7 629 -7 l629 0 16 25 c19 29 19 29 -28 10 l-36 -15
-200 120 -200 120 -405 0 c-322 0 -405 -3 -399 -12z"/>
<path d="M12675 7588 c-190 -67 -480 -169 -747 -262 l-177 -61 -327 -475
c-179 -261 -442 -644 -584 -850 -142 -206 -325 -473 -408 -594 l-151 -218 112
-81 c62 -44 186 -134 276 -199 90 -66 167 -116 171 -111 4 4 128 181 276 393
147 212 367 527 487 700 121 173 275 394 342 490 67 96 162 232 211 302 49 70
173 248 276 395 103 147 240 345 305 438 144 205 137 195 121 194 -7 0 -89
-28 -183 -61z"/>
<path d="M14440 6824 c-8 -1 -105 -14 -215 -29 -496 -65 -707 -94 -712 -99 -3
-3 -41 -56 -84 -118 -42 -62 -96 -140 -119 -173 -23 -33 -158 -229 -300 -435
-142 -206 -277 -402 -300 -435 -325 -469 -490 -710 -490 -717 0 -4 199 -8 443
-8 l442 0 690 997 c380 548 694 1002 698 1010 8 13 -14 16 -53 7z"/>
<path d="M4980 8143 c0 -5 18 -35 39 -67 29 -43 37 -64 31 -75 -5 -9 -58 -88
-119 -176 -60 -88 -148 -216 -194 -285 -47 -69 -311 -456 -587 -860 -276 -404
-540 -791 -587 -860 -46 -69 -112 -165 -146 -215 -206 -300 -318 -467 -315
-470 4 -4 548 -401 783 -571 94 -68 266 -193 383 -279 117 -85 220 -155 228
-155 11 0 6 13 -19 48 -62 86 -167 241 -167 247 0 3 285 5 633 5 l632 1 705
860 c388 473 815 994 948 1157 134 163 342 416 461 562 660 805 765 932 775
936 6 2 124 3 263 2 l251 -3 -172 -250 c-94 -137 -360 -524 -591 -860 -230
-335 -455 -663 -500 -727 -459 -670 -1108 -1614 -1132 -1645 l-24 -33 973 0
973 0 52 78 c28 42 172 253 320 467 147 215 349 509 448 653 294 429 566 825
803 1169 92 134 196 286 232 338 36 53 139 203 230 335 335 487 370 538 370
546 0 4 -19 36 -42 70 l-43 63 -1360 1 -1360 0 -186 -227 c-103 -126 -366
-446 -584 -713 -219 -267 -466 -568 -549 -669 -83 -101 -183 -223 -222 -270
-38 -47 -205 -250 -370 -451 -164 -201 -450 -549 -634 -773 l-334 -407 -288 0
c-158 0 -288 2 -288 4 0 3 91 137 203 298 112 161 309 447 439 634 130 188
251 364 270 390 19 27 130 189 248 359 301 436 1141 1649 1187 1714 21 30 46
67 56 83 l19 28 -1071 0 c-589 0 -1071 -3 -1071 -7z"/>
<path d="M21705 3094 c-133 -31 -189 -65 -224 -137 -28 -58 -26 -89 5 -121 40
-39 94 -50 244 -50 195 0 301 36 350 117 49 80 34 146 -38 173 -46 16 -288 30
-337 18z"/>
<path d="M13438 3105 l-17 -45 239 0 c239 0 282 5 294 36 8 22 -3 41 -27 48
-12 3 -123 6 -247 6 l-226 0 -16 -45z"/>
<path d="M13336 2828 c-8 -13 -17 -33 -21 -45 l-6 -23 288 0 c248 0 292 2 311
16 15 10 22 24 20 37 -4 31 -45 36 -330 36 -246 1 -248 1 -262 -21z"/>
<path d="M18654 3012 l-111 -117 135 -3 c74 -1 137 -1 139 2 7 6 -39 236 -46
236 -3 0 -56 -53 -117 -118z"/>
<path d="M20057 3041 c-9 -27 -17 -51 -17 -55 0 -3 107 -6 238 -6 258 0 278 4
295 54 17 53 1 56 -263 56 l-235 0 -18 -49z"/>
<path d="M25314 3012 l-111 -117 135 -3 c74 -1 137 -1 139 2 6 6 -37 218 -46
228 -3 4 -56 -46 -117 -110z"/>
<path d="M7055 11962 c-439 -142 -1010 -334 -1180 -397 -1055 -389 -1894 -777
-2624 -1214 -1764 -1057 -2578 -2256 -2351 -3465 53 -282 169 -580 331 -848
l53 -88 622 0 623 0 108 158 c60 86 143 209 186 272 43 63 141 207 218 320 77
113 183 268 235 345 52 77 128 187 167 245 40 58 144 211 232 340 88 129 176
259 197 289 21 30 34 59 30 65 -4 6 -103 155 -220 331 l-212 320 30 5 30 5
-140 210 c-77 116 -140 213 -140 217 0 5 462 9 1026 10 l1027 3 176 261 c97
144 268 399 381 568 l205 305 321 1 321 0 260 418 260 417 -219 3 -218 2 50
80 50 80 -100 0 c-55 0 -100 3 -100 8 1 4 24 44 53 89 29 45 107 169 173 275
67 106 149 237 183 290 33 53 61 99 61 102 0 10 -22 5 -105 -22z"/>
<path d="M36379 11842 c-5 -9 -61 -100 -123 -202 l-114 -184 66 -29 c365 -157
907 -419 1187 -573 882 -483 1517 -940 2020 -1455 164 -168 197 -205 321 -360
369 -462 591 -943 666 -1444 20 -138 17 -512 -5 -655 -45 -282 -122 -520 -256
-790 -556 -1115 -1941 -2166 -4029 -3056 -185 -79 -545 -225 -627 -255 -27
-10 -93 -34 -145 -54 -343 -132 -1075 -382 -1403 -480 l-127 -39 -38 -98 -37
-98 -298 0 c-324 0 -277 6 -555 -69 -937 -254 -2128 -516 -3187 -701 -608
-107 -1645 -266 -2015 -309 -47 -6 -192 -24 -323 -40 -1180 -150 -2627 -275
-3872 -336 -170 -8 -400 -19 -510 -25 -110 -5 -445 -17 -745 -27 -774 -25
-2728 -25 -3500 0 -574 18 -1435 57 -1805 82 -121 8 -263 17 -315 20 -740 45
-2037 165 -2810 260 -2137 264 -4014 615 -5665 1060 -115 31 -235 63 -265 71
-91 24 -160 44 -540 156 -393 115 -1002 314 -1413 462 l-239 86 -611 0 c-336
0 -607 -4 -601 -8 11 -11 224 -103 469 -205 194 -80 246 -101 430 -172 66 -25
131 -50 145 -56 14 -6 72 -28 130 -49 58 -21 143 -53 190 -70 266 -99 917
-318 1205 -405 287 -87 317 -96 640 -189 435 -126 905 -249 1440 -376 428
-101 741 -170 1205 -265 411 -84 679 -134 1190 -224 411 -73 1035 -170 1480
-231 124 -17 270 -37 325 -45 91 -13 190 -26 675 -85 192 -23 617 -70 910 -99
1430 -144 2912 -232 4445 -262 640 -13 2205 -7 2790 11 695 20 1772 73 2330
115 110 8 232 17 270 20 1293 91 2830 271 4205 490 247 40 590 99 875 152 105
19 226 41 270 49 106 19 517 100 630 124 50 11 146 31 215 46 666 139 1420
321 2120 514 124 33 261 72 305 85 44 14 193 58 330 99 576 172 1189 378 1705
573 167 63 549 213 630 248 30 13 134 57 230 99 1146 489 2116 1039 2875 1630
596 464 1073 977 1372 1474 89 148 224 424 277 567 242 653 235 1338 -21 1985
-452 1141 -1653 2220 -3518 3160 -301 151 -375 187 -650 312 -203 93 -194 90
-206 70z"/>
<path d="M35972 11182 c-10 -15 -96 -153 -190 -307 -95 -154 -255 -413 -355
-575 l-182 -295 -1565 -3 -1565 -3 -315 -456 c-173 -251 -316 -460 -318 -465
-2 -4 258 -8 577 -8 320 0 581 2 581 5 0 3 -20 33 -45 68 l-46 62 44 5 43 5
-153 210 c-84 116 -153 213 -153 218 0 4 482 7 1071 7 l1071 0 272 -197 c149
-109 476 -346 726 -528 250 -182 511 -371 579 -420 68 -50 236 -172 375 -273
323 -234 567 -411 671 -487 759 -550 1144 -831 1145 -837 0 -4 -80 -9 -179
-10 l-179 -3 296 -215 296 -215 -1059 -5 -1060 -5 -203 -295 c-113 -162 -238
-344 -280 -405 -42 -60 -96 -139 -121 -175 -38 -55 -928 -1342 -1063 -1538
-24 -34 -63 -92 -88 -127 -25 -35 -65 -94 -90 -130 -25 -36 -65 -95 -90 -130
-25 -35 -64 -93 -88 -127 -24 -35 -73 -105 -108 -157 -41 -59 -61 -96 -55
-101 8 -4 -30 -116 -108 -326 -65 -175 -115 -320 -110 -322 9 -4 354 106 679
216 1136 385 2141 829 2970 1310 614 356 1134 744 1530 1141 1077 1079 1257
2246 517 3361 -611 921 -1832 1779 -3624 2546 -30 13 -33 12 -51 -14z"/>
<path d="M9825 3948 c-186 -269 -496 -721 -547 -797 l-63 -94 -1462 5 c-805 3
-1463 4 -1463 2 0 -2 32 -49 71 -106 39 -57 81 -118 92 -135 25 -38 30 -39
292 -123 880 -282 1878 -546 2906 -770 643 -140 1503 -302 2184 -410 105 -17
231 -37 280 -45 351 -57 1330 -188 1865 -250 756 -87 1847 -186 2540 -230 47
-3 189 -12 315 -20 1251 -81 3045 -125 4356 -106 703 11 1487 32 1884 51 847
41 854 42 1435 81 1412 94 3107 280 4335 475 548 86 901 147 1445 248 420 78
1041 208 1420 298 l205 48 -1125 -2 c-2881 -4 -2680 -5 -2754 10 -40 8 -62 9
-66 2 -4 -7 -480 -9 -1415 -8 l-1409 3 -9 44 -9 44 -47 -47 -47 -46 -1030 2
-1030 3 97 260 c54 143 98 263 99 268 0 4 -62 7 -138 7 l-139 0 -32 -45 c-18
-25 -60 -73 -94 -107 -202 -205 -450 -320 -807 -374 -135 -21 -55 -20 -2027
-16 l-1443 2 -6 28 c-14 67 -16 67 -62 18 l-42 -46 -3135 0 c-1724 0 -3135 3
-3135 7 0 5 18 55 39 113 135 359 201 540 201 550 0 7 -121 10 -375 10 l-376
0 -347 252 c-191 138 -435 315 -542 393 -630 457 -824 597 -835 601 -7 3 -29
-17 -50 -48z"/>
</g>
</svg>
